<?xml version="1.0" encoding="utf-8"?>
<!-- Generator: Adobe Illustrator 24.1.0, SVG Export Plug-In . SVG Version: 6.00 Build 0)  -->
<svg version="1.1" id="svg" xmlns="http://www.w3.org/2000/svg" xmlns:xlink="http://www.w3.org/1999/xlink" x="0px" y="0px"
	 viewBox="0 0 357 263.7" style="enable-background:new 0 0 357 263.7;" xml:space="preserve">
<style type="text/css">
	.st0{fill-rule:evenodd;clip-rule:evenodd;fill:#FBE7B4;}
	.st1{fill-rule:evenodd;clip-rule:evenodd;fill:#1C1C1C;}
</style>
<g id="svgg">
	<path id="path0" class="st0" d="M138.1,122.3c-44.2,24,15.3,78.5,41.7,83.5c49.8,16,123.6,9,147.9-49.8c3.8-36-24-35.1-46.7-28.4
		C250.6,134.8,175.6,128.4,138.1,122.3 M180.9,148c20.6,7.7-2.4,35.6-13.7,16.3C163.3,155.6,171.7,144.7,180.9,148 M275.1,148
		c8.2,2.3,11.2,12.7,5.1,19.3C261.3,183.7,251.3,143.2,275.1,148"/>
	<path id="path3" class="st1" d="M217.4,4.9C170.2,7.6,130,37.1,109.2,78.5c-7.7-17.5-29-27.4-46.7-31c1.1,6.4,4.8,15.4,6.2,21.8
		c2.8,5.3,18.9,21.8,17.3,22.7C60,82.9,30.7,93.1,7.4,103.4c-4.9,2.2-7.1,4.2-0.8,6.8c4.3,2.5,8.8,5.1,13.7,6.8
		c21.4,10.8,52.3,11.9,76.6,1.5c-4.8,78.4,60.3,153.2,146.4,141C404.8,232.7,380-1.3,217.4,4.9 M149.1,126
		c43,7.1,97.8,9.4,140.4,2.5c76.9-11.5,26.4,89.5-88.7,71.6c-21.5-3.4-40.1-10.1-56.9-23.4C121.7,164.5,113.3,120.9,149.1,126
		 M174.5,146.6c-14.9,3.2-12.8,25.2,2.4,25.2C195.9,171.7,192.6,143.3,174.5,146.6 M268,148c-12.3,3.2-12.3,22-0.5,25.2
		C288.2,178.8,289.8,143.5,268,148"/>
</g>
</svg>
