<?xml version="1.0" encoding="utf-8"?>
<!-- Generator: Adobe Illustrator 25.2.0, SVG Export Plug-In . SVG Version: 6.00 Build 0)  -->
<svg version="1.1" id="Capa_1" xmlns="http://www.w3.org/2000/svg" xmlns:xlink="http://www.w3.org/1999/xlink" x="0px" y="0px"
	 viewBox="0 0 371.4 371.4" style="enable-background:new 0 0 371.4 371.4;" xml:space="preserve">
<style type="text/css">
	.st0{fill:#159EFF;stroke:#FFF9F4;stroke-width:15;stroke-miterlimit:10;}
</style>
<g>
	<path class="st0" d="M270.3,150.5c-36.1-45.2-70.4-75.7-73.4-135.5c0-1.8-0.6-2.9-1.8-4.1c-0.6-2.9-3.7-4.7-6.7-2.9
		c-3.7,0-6.7,2.3-6.7,6.5c-77.1,79.8-207.5,282.2-43.5,340.3c74.1,26.4,157.9-9.4,172.6-86.8C318.6,226.2,296,182.1,270.3,150.5z
		 M138.7,317.1c-17.7-10-28.8-29.9-34.3-47.5c-2.4-8.8-3.7-17.6-3.1-26.4c3.7-15.3,8.6-29.9,14.1-44.6c3.1,12.9,9.2,25.8,17.7,35.2
		c19.6,20.5,59.4,32.9,70.4,58.7c6.7,15.8-19.6,29.3-30.6,32.9C161.3,328.8,148.5,323,138.7,317.1z"/>
</g>
</svg>
